<?xml version="1.0" encoding="UTF-8" standalone="no"?>
<!-- Created with Inkscape (http://www.inkscape.org/) -->

<svg
   version="1.1"
   id="svg1791"
   width="201.59081"
   height="236.30025"
   viewBox="0 0 201.59081 236.30025"
   sodipodi:docname="man3a.svg"
   inkscape:version="1.2.2 (732a01da63, 2022-12-09, custom)"
   xmlns:inkscape="http://www.inkscape.org/namespaces/inkscape"
   xmlns:sodipodi="http://sodipodi.sourceforge.net/DTD/sodipodi-0.dtd"
   xmlns="http://www.w3.org/2000/svg"
   xmlns:svg="http://www.w3.org/2000/svg">
  <defs
     id="defs1795" />
  <sodipodi:namedview
     id="namedview1793"
     pagecolor="#ffffff"
     bordercolor="#000000"
     borderopacity="0.25"
     inkscape:showpageshadow="2"
     inkscape:pageopacity="0.0"
     inkscape:pagecheckerboard="0"
     inkscape:deskcolor="#d1d1d1"
     showgrid="false"
     inkscape:zoom="3.3130602"
     inkscape:cx="94.776424"
     inkscape:cy="119.82879"
     inkscape:window-width="1920"
     inkscape:window-height="1031"
     inkscape:window-x="0"
     inkscape:window-y="25"
     inkscape:window-maximized="1"
     inkscape:current-layer="layer1" />
  <g
     inkscape:groupmode="layer"
     id="layer1"
     inkscape:label="Layer 1"
     transform="translate(-11.327851,-5.1335618)">
    <path
       style="fill:#000000;stroke-width:0.32"
       d="m 103.04548,241.35099 c -0.74312,-0.0818 -1.4096,-0.45316 -2,-1.11446 -0.48701,-0.54549 -0.88548,-0.82186 -0.88548,-0.61417 0,0.73274 -0.567507,0.36656 -0.727286,-0.46927 -0.194224,-1.016 0.635586,-3.62863 1.157366,-3.64395 0.20346,-0.006 0.94592,-0.28908 1.64992,-0.62914 0.704,-0.34006 1.46574,-0.62317 1.69275,-0.62914 0.22701,-0.006 0.94701,-0.27622 1.6,-0.60056 0.65299,-0.32433 1.90725,-0.7743 2.78725,-0.99993 2.3475,-0.60187 5.54068,-2.19934 5.75668,-2.87991 0.10323,-0.32523 0.40733,-0.67562 0.67578,-0.77864 0.26846,-0.10301 0.39848,-0.33232 0.28894,-0.50956 -0.10954,-0.17724 -0.0431,-0.32226 0.14763,-0.32226 0.19075,0 0.48368,-0.36 0.65097,-0.8 0.16729,-0.44 0.45172,-0.8 0.63208,-0.8 0.18036,0 0.32792,-0.15089 0.32792,-0.3353 0,-0.18442 0.612,-0.94042 1.36,-1.68 l 1.36,-1.3447 0.0964,-2.771 c 0.0533,-1.5333 -0.0405,-2.85555 -0.20995,-2.96031 -0.16849,-0.10413 -0.23162,-0.47503 -0.14031,-0.82423 0.0913,-0.34919 0.0593,-0.88905 -0.0712,-1.19968 -0.13047,-0.31063 -0.27855,-0.85278 -0.32907,-1.20478 -0.0505,-0.352 -0.18165,-1.072 -0.29142,-1.6 -0.10977,-0.528 -0.18941,-1.428 -0.17698,-2 0.0124,-0.572 -0.10191,-1.04 -0.25409,-1.04 -0.29931,0 -0.35899,-0.38362 -0.38762,-2.49181 -0.0102,-0.7545 -0.12867,-1.30381 -0.26317,-1.22068 -0.1345,0.0831 -0.27924,-0.36403 -0.32165,-0.99368 -0.0424,-0.62965 -0.20835,-1.39007 -0.36877,-1.68982 -0.16043,-0.29975 -0.35909,-0.89128 -0.44148,-1.31451 -0.52358,-2.68943 -1.18746,-4.89795 -1.74455,-5.80357 -0.35388,-0.57526 -1.02156,-2.41393 -1.48373,-4.08593 -0.46217,-1.672 -0.97803,-3.29004 -1.14635,-3.59566 -0.16832,-0.30561 -0.30604,-0.71338 -0.30604,-0.90615 0,-0.19278 -0.48008,-1.16964 -1.06685,-2.17081 -0.91458,-1.56048 -1.42643,-2.83337 -1.53044,-3.80594 -0.0142,-0.13279 -0.16301,-0.49778 -0.33069,-0.81109 -0.26654,-0.49804 -0.44486,-1.29909 -0.69238,-3.11035 -0.0819,-0.59954 -1.83101,-3.59735 -2.28428,-3.9151 -0.18444,-0.12931 -0.2333,-0.23731 -0.10857,-0.24 0.34428,-0.007 -1.33545,-3.2049 -1.68363,-3.2049 -0.16674,0 -0.26805,-0.108 -0.22515,-0.24 0.0736,-0.22629 -1.27227,-2.61509 -1.66763,-2.96 -0.10088,-0.088 -0.34688,-0.53294 -0.54668,-0.98875 -0.3893,-0.88813 -0.91166,-0.95768 -2.465966,-0.32836 -0.507248,0.20537 -1.180675,0.29139 -1.496512,0.19115 -0.849942,-0.26976 -2.527408,0.54889 -4.015769,1.95981 -1.55688,1.47587 -3.566349,3.12095 -4.003818,3.27778 -0.171264,0.0614 -0.768784,0.52939 -1.327827,1.04 -0.55904,0.5106 -1.139424,0.92837 -1.289738,0.92837 -0.319414,0 -2.14407,1.77143 -2.14407,2.08153 0,0.11592 -0.486067,0.81099 -1.08015,1.54461 -1.340202,1.65499 -2.027296,3.05726 -1.907933,3.89386 0.05022,0.352 0.157894,1.144 0.23927,1.76 0.08138,0.616 0.178045,1.192 0.214819,1.28 0.344384,0.82411 0.337968,6.70574 -0.0085,7.785 -0.179209,0.55825 -0.635894,1.987 -1.014857,3.175 -0.378963,1.188 -0.78416,2.16 -0.900435,2.16 -0.116276,0 -0.239367,0.54 -0.273536,1.2 -0.229818,4.43909 -0.912736,7.90741 -2.315568,11.76 -1.216036,3.33959 -1.520727,5.85513 -0.857962,7.08334 0.50104,0.92851 0.804886,1.6761 1.152922,2.83666 0.349216,1.1645 0.184956,8.92415 -0.212349,10.03157 -0.269437,0.75101 -0.286304,1.25496 -0.05638,1.68457 0.180435,0.33715 0.213898,0.58769 0.07436,0.55675 -0.139536,-0.0309 -0.685702,0.12662 -1.213702,0.35011 -0.528,0.22349 -1.687504,0.43663 -2.576675,0.47365 -0.889175,0.037 -1.772371,0.16353 -1.962659,0.28114 -0.662583,0.40949 -2.603594,0.57344 -2.811248,0.23745 -0.312266,-0.50526 -1.289069,-0.40431 -2.471127,0.25538 -0.732521,0.40881 -1.600064,0.56965 -2.818291,0.5225 -0.968,-0.0375 -1.904,0.0181 -2.08,0.12349 -0.323606,0.19376 -0.557018,0.22258 -3.627005,0.44778 -0.938851,0.0689 -1.802851,0.27976 -1.92,0.46864 -0.117145,0.18887 -1.004995,0.42029 -1.972995,0.51427 -0.968,0.094 -2.48,0.32784 -3.36,0.51969 -0.88,0.19185 -2.68,0.48459 -4,0.65053 -1.32,0.16594 -2.868,0.36405 -3.44,0.44025 -0.976611,0.13009 -1.04231,0.0771 -1.077894,-0.86962 -0.04626,-1.23076 -0.08496,-1.02892 0.530755,-2.76815 0.64959,-1.83492 2.553997,-3.83892 3.652083,-3.84309 0.448282,-0.002 2.445507,-0.34118 4.438285,-0.75439 3.590368,-0.74448 3.637181,-0.76592 5.162067,-2.36468 0.846365,-0.88736 1.914163,-1.8593 2.37289,-2.15987 0.458723,-0.30057 1.262684,-1.29567 1.786576,-2.21134 0.860342,-1.50372 0.939798,-1.87979 0.820979,-3.88574 -0.07239,-1.22149 -0.14352,-4.27289 -0.158106,-6.78089 -0.01459,-2.508 -0.130275,-4.56026 -0.257094,-4.56057 -0.308077,-6.4e-4 -0.297376,-7.09656 0.01142,-7.5721 0.133098,-0.20497 0.100246,-0.42097 -0.073,-0.48 -0.188611,-0.0643 -0.365747,-2.93194 -0.441491,-7.14733 -0.121209,-6.74567 -0.169353,-7.19386 -1.151577,-10.72 -0.563796,-2.024 -1.101639,-4.14684 -1.195213,-4.71743 -0.09357,-0.57059 -0.273747,-0.9734 -0.400391,-0.89513 -0.376316,0.23258 0.268061,-3.74254 0.783901,-4.8358 0.582029,-1.23354 0.611799,-1.82895 0.07578,-1.51552 -0.22,0.12864 -0.171734,-0.0429 0.107255,-0.38112 0.278989,-0.33825 0.823987,-1.30806 1.211104,-2.15514 0.866627,-1.89631 3.929885,-6.67931 5.31343,-8.29643 0.563056,-0.65812 1.299245,-1.73419 1.635975,-2.39127 0.336729,-0.65708 0.864236,-1.47778 1.172236,-1.82377 0.308,-0.34599 0.56,-0.80793 0.56,-1.02654 0,-0.60094 1.388631,-2.65286 1.805764,-2.6683 0.37759,-0.014 0.900873,-0.9313 0.79711,-1.39734 -0.0323,-0.14508 0.07309,-0.18231 0.234195,-0.0827 0.339037,0.20953 1.513271,-1.41642 1.367427,-1.89347 -0.0538,-0.176 0.0053,-0.21688 0.131319,-0.0908 0.261405,0.2614 1.630349,-1.35501 1.496256,-1.76673 -0.04836,-0.1485 0.03485,-0.19411 0.184912,-0.10137 0.297587,0.18392 2.623027,-2.44303 2.623027,-2.96311 0,-0.17609 0.16625,-0.42292 0.369443,-0.5485 0.249344,-0.1541 0.283475,-0.0822 0.104992,0.22112 -0.145446,0.24719 0.0483,0.17512 0.43056,-0.16016 0.765549,-0.67147 0.919635,-1.0012 0.295005,-0.63129 -0.22,0.13029 0.32,-0.44773 1.2,-1.28448 0.88,-0.83675 1.384,-1.41121 1.12,-1.27658 -0.410122,0.20917 -0.417299,0.16747 -0.04931,-0.28639 0.23688,-0.29216 0.590336,-0.4998 0.785456,-0.46143 0.19512,0.0384 0.361309,-0.10303 0.369309,-0.31423 0.008,-0.2112 0.21567,-0.5712 0.461488,-0.8 0.371027,-0.34533 0.402451,-0.33446 0.184995,0.064 -0.171222,0.31375 -0.02384,0.27123 0.425507,-0.12277 0.378106,-0.33152 0.616509,-0.71757 0.529789,-0.85789 -0.08672,-0.14031 0.01091,-0.35932 0.216989,-0.48667 0.256227,-0.15836 0.289037,-0.0895 0.103792,0.21789 -0.230138,0.38186 -0.189984,0.38384 0.267034,0.0132 0.295846,-0.23994 0.458992,-0.56394 0.36254,-0.72 -0.09645,-0.15606 1.19e-4,-0.28374 0.214592,-0.28374 0.538192,0 4.097812,-3.43748 3.848925,-3.71686 -0.110608,-0.12416 -0.04035,-0.13406 0.156125,-0.022 0.19648,0.11207 0.62848,-0.0959 0.96,-0.46206 0.966451,-1.06755 1.016147,-5.30767 0.102733,-8.76532 -0.648432,-2.45459 -0.685642,-2.95771 -0.352464,-4.76592 0.435027,-2.36099 0.484598,-4.56079 0.108019,-4.79353 -0.145462,-0.0899 -1.117462,0.0334 -2.16,0.27395 -1.042534,0.24057 -2.32752,0.51312 -2.85552,0.60566 -1.288195,0.22578 -2.329181,0.46047 -3.032227,0.68361 -0.319607,0.10144 -1.064103,0.25135 -1.654439,0.33314 -0.590332,0.0818 -1.793334,0.2564 -2.673334,0.388 -0.88,0.1316 -4.552,0.2104 -8.16,0.17511 -15.161037,-0.14828 -18.695683,-0.13956 -19.698746,0.0486 -0.923843,0.17331 -1.054432,0.31887 -1.030828,1.14899 0.01485,0.52279 -0.246903,1.25366 -0.5817,1.62415 -0.771948,0.85425 -3.267638,2.12819 -4.644352,2.37073 -1.17888,0.20768 -4.124374,-0.39093 -4.124374,-0.8382 0,-0.15844 -0.108,-0.27103 -0.24,-0.25019 -0.132,0.0208 -0.857702,0.0208 -1.612672,0 -1.156819,-0.0319 -1.571958,-0.2412 -2.64,-1.33082 C 33.530298,116.39596 32.96,115.5225 32.96,115.16604 c 0,-0.83088 -0.562371,-1.88604 -1.005204,-1.88604 -0.807615,0 -2.622345,-2.99703 -2.344603,-3.87212 0.108555,-0.34202 -0.07269,-0.83038 -0.447157,-1.20484 -0.346337,-0.34634 -0.578309,-0.6811 -0.515495,-0.74391 0.06282,-0.0628 0.14822,-0.85962 0.189791,-1.77066 0.04157,-0.91105 0.172474,-1.59657 0.290897,-1.52339 0.118423,0.0732 0.40535,-0.22201 0.637616,-0.656 0.232266,-0.434 0.605804,-0.78908 0.830083,-0.78908 0.22428,0 0.595947,-0.26864 0.825927,-0.59699 0.22998,-0.32834 0.521477,-0.58034 0.647771,-0.56 0.126294,0.0204 0.510124,-0.20318 0.852953,-0.49672 0.342832,-0.29354 0.695008,-0.46204 0.782611,-0.37443 0.0876,0.0876 0.553399,-0.099 1.035098,-0.41458 0.481699,-0.315622 1.091779,-0.605555 1.355731,-0.644294 0.263952,-0.03874 0.566327,-0.18801 0.671946,-0.331712 0.289558,-0.393962 0.923254,-0.476186 3.552035,-0.46089 10.178822,0.05923 12.90575,0.04053 13.03567,-0.08939 C 53.561184,98.545482 52.104221,96 51.781075,96 51.637485,96 51.52,95.794285 51.52,95.542858 c 0,-0.251431 -0.223786,-0.680932 -0.497306,-0.954448 -0.273516,-0.273517 -0.54952,-0.751802 -0.61334,-1.062858 C 50.345533,93.214499 49.957318,92.03663 49.546656,90.908067 48.715162,88.622989 48.75488,88.64497 45.367434,88.595152 43.046176,88.561011 42.675021,88.34208 42.508317,86.90864 42.448442,86.393808 42.185331,85.940115 41.92,85.894179 c -0.264,-0.0457 -1.056,-0.180304 -1.76,-0.29911 -0.704,-0.11881 -1.424,-0.334058 -1.6,-0.47833 -0.176,-0.144275 -0.464,-0.29 -0.64,-0.323837 -0.176,-0.03384 -0.896,-0.361753 -1.6,-0.7287 -0.704,-0.366951 -1.496,-0.717236 -1.76,-0.778413 -1.188416,-0.275392 -2.433242,-0.27201 -2.8,0.0076 -0.22,0.167728 -0.402205,0.179331 -0.4049,0.02579 -0.0027,-0.153549 -0.110695,-0.117754 -0.24,0.07954 -0.310744,0.474148 -4.233686,2.44106 -4.24,2.125882 -0.0027,-0.134534 -0.110695,-0.08378 -0.24,0.112781 -0.246502,0.374723 -4.989222,2.647757 -5.828883,2.793597 -0.267419,0.04645 -0.918217,0.309222 -1.446217,0.583945 -1.042675,0.542509 -3.325666,1.368362 -3.84,1.389088 -0.176,0.0071 -0.503957,0.128035 -0.728794,0.268759 C 14.015447,91.158339 12.347633,89.839091 12,88.464938 c -0.176,-0.695706 -0.452579,-1.470941 -0.61462,-1.722743 -0.323776,-0.503123 0.783605,-1.447485 1.708495,-1.456982 0.278369,-0.0029 0.478866,-0.158973 0.445549,-0.346925 -0.03619,-0.204154 0.323207,-0.285398 0.89273,-0.201811 0.524317,0.07695 0.930524,0.01472 0.902681,-0.138272 -0.11146,-0.612493 0.04524,-0.971674 0.425165,-0.974554 0.391972,-0.0029 4.659968,-1.75023 5.755658,-2.356285 0.305612,-0.169059 0.773612,-0.307366 1.04,-0.307366 0.266388,0 0.484342,-0.144 0.484342,-0.32 0,-0.176 0.18,-0.284 0.4,-0.24 0.262139,0.05243 0.407494,-0.347238 0.421744,-1.159616 0.01371,-0.781587 0.260228,-1.491014 0.667184,-1.92 0.999282,-1.053382 1.784631,-2.382477 1.591975,-2.694202 -0.405577,-0.656236 -0.766434,-2.937929 -0.43195,-2.731206 0.214631,0.13265 0.262186,0.0077 0.129093,-0.339101 -0.115893,-0.302013 -0.0948,-0.477475 0.04688,-0.38991 0.141678,0.08756 0.896028,-0.264343 1.676334,-0.782013 0.780306,-0.517667 1.546225,-0.941827 1.702043,-0.942582 0.155818,-6.4e-4 0.59553,-0.32537 0.977136,-0.72137 0.381607,-0.396 0.90212,-0.7668 1.156695,-0.824 0.254575,-0.0572 0.508167,-0.22911 0.563539,-0.382022 0.05537,-0.152916 0.30737,-0.198708 0.56,-0.101764 0.252627,0.09694 0.459325,0.01686 0.459325,-0.177977 0,-0.194832 0.176582,-0.318237 0.392403,-0.274237 0.215821,0.044 0.440467,-0.233542 0.49921,-0.616762 0.152742,-0.996412 0.654342,-1.296278 2.468387,-1.475651 0.88,-0.08702 2.032,-0.248422 2.56,-0.358685 2.594941,-0.541891 4.235302,-0.473923 5.550387,0.229988 0.720423,0.385609 1.603952,0.95311 1.963395,1.26111 0.359444,0.308 0.795888,0.56 0.969876,0.56 0.173987,0 0.316342,0.144 0.316342,0.32 0,0.176 0.14983,0.32 0.332957,0.32 0.183126,0 0.726099,0.290662 1.206605,0.645914 0.480502,0.355251 1.374672,0.713264 1.98704,0.795584 1.094518,0.147129 2.873398,-0.34008 2.873398,-0.786986 0,-0.125315 0.18,-0.228502 0.4,-0.229306 0.22,-9.6e-4 1.39239,-0.46159 2.605312,-1.023971 1.212918,-0.562381 3.876918,-1.757686 5.92,-2.65623 2.04308,-0.898547 3.96669,-1.852077 4.27469,-2.118957 0.308,-0.266883 0.56,-0.39873 0.56,-0.292992 0,0.105734 1.007216,-0.305533 2.238259,-0.91393 1.23104,-0.608396 2.314275,-1.098438 2.407184,-1.088979 0.09291,0.0095 1.137693,-0.483597 2.321741,-1.09568 1.9108,-0.987773 4.42871,-2.151968 4.872816,-2.253021 0.909149,-0.206873 3.84,-1.652198 3.84,-1.893664 0,-0.172947 0.0795,-0.23495 0.176662,-0.137785 0.09716,0.09717 1.285165,-0.28617 2.64,-0.851853 C 89.880083,51.818666 90.046611,51.75167 90.4,51.66344 90.576,51.6195 91.152,51.401318 91.68,51.178589 92.707187,50.745286 92.954291,50.662723 93.411686,50.6 93.736013,50.55552 93.689373,49.742707 93.342596,49.39593 93.220166,49.273501 93.12,48.77711 93.12,48.292838 93.12,47.129882 92.821402,46.4 92.345632,46.4 c -0.916,0 -3.742704,-4.108243 -3.958998,-5.753888 -0.05828,-0.44336 -0.220176,-0.847136 -0.359786,-0.897277 -0.139606,-0.05014 -0.185971,-0.446137 -0.103034,-0.88 0.09852,-0.515366 0.0047,-0.788835 -0.270508,-0.788835 -0.310512,0 -0.327223,-0.09408 -0.06355,-0.357754 C 87.92104,37.39096 87.903472,36.747002 87.488214,34 c -0.09505,-0.628742 -0.342672,-1.04 -0.626201,-1.04 -0.257943,0 -1.108922,-0.300806 -1.891066,-0.668454 -1.284253,-0.603671 -1.471766,-0.839375 -1.934745,-2.431976 -0.526637,-1.811563 -0.83761,-8.420175 -0.396202,-8.419783 0.132,1.17e-4 0.24,-0.265754 0.24,-0.590824 0,-0.32507 0.252,-0.878435 0.56,-1.2297 0.689043,-0.785833 3.152646,-2.359951 3.363491,-2.149104 0.543802,0.5438 3.638599,-1.827778 3.254231,-2.493753 -0.132183,-0.229023 -0.126628,-0.31379 0.01235,-0.18837 0.138969,0.125419 0.755395,-0.738581 1.369833,-1.92 0.614435,-1.18142 1.396925,-2.543053 1.738864,-3.0258523 C 93.520708,9.359385 93.7202,8.8344739 93.622081,8.6757149 93.523961,8.5169558 93.667981,8.3009904 93.942129,8.1957914 94.216273,8.0905923 94.36044,7.874864 94.2625,7.7163955 94.16456,7.557927 94.471601,7.3310973 94.944811,7.2123296 95.418017,7.0935619 96.30788,6.5550211 96.922276,6.0155725 98.028036,5.0447024 98.066145,5.0368157 100.68071,5.2377866 102.13345,5.3494528 104.348,5.6566323 105.60195,5.920408 106.85588,6.1841837 109.37207,6.4 111.19347,6.4 h 3.31163 l 0.98082,1.52 c 0.53944,0.836 1.21131,1.8348851 1.49303,2.219744 0.33133,0.452633 0.54917,1.545392 0.61688,3.094357 0.13469,3.081447 0.59851,4.013385 2.49142,5.005899 1.26261,0.662027 1.5852,1.019036 1.87044,2.070023 0.30048,1.107128 0.39541,8.80399 0.13629,11.049977 -0.0508,0.44 -0.11068,1.478451 -0.13314,2.307667 -0.04,1.477472 -0.0665,1.514567 -1.32084,1.852333 -0.704,0.189568 -1.298,0.483117 -1.32,0.652333 -0.0545,0.419222 -0.18617,0.93055 -0.26463,1.027667 -0.22717,0.281194 -0.1448,2.357782 0.10028,2.528256 0.16467,0.114541 0.89957,-0.04901 1.63312,-0.36344 2.01371,-0.863178 7.58339,-2.830336 8.49123,-2.999024 0.78111,-0.145139 1.34312,-0.311446 2.48,-0.733866 0.308,-0.114441 0.8367,-0.261305 1.17489,-0.326368 0.33818,-0.06506 0.80618,-0.277062 1.04,-0.47111 C 134.2087,34.640403 134.4,34.56392 134.4,34.66449 c 0,0.100569 0.52601,-0.03693 1.16891,-0.305549 2.10006,-0.877463 6.34006,-1.127709 9.23109,-0.544826 1.408,0.283879 2.848,0.697997 3.2,0.920263 0.352,0.222265 1.216,0.494374 1.92,0.604688 0.704,0.11031 1.784,0.288224 2.4,0.395363 1.98548,0.345328 5.46201,0.4864 6.01886,0.244237 0.54645,-0.237642 0.6645,-0.266192 2.54114,-0.614589 0.572,-0.106192 1.04,-0.33905 1.04,-0.517463 0,-0.178412 0.13978,-0.237996 0.31062,-0.132412 0.35268,0.217968 0.68321,-0.916016 0.58126,-1.994202 -0.0374,-0.396 -0.20543,-0.72 -0.37331,-0.72 -0.16788,0 -0.21609,-0.08914 -0.10714,-0.198095 0.10895,-0.108953 -9.6e-4,-0.397134 -0.24421,-0.640404 -0.45901,-0.459001 -0.21938,-2.007496 0.43212,-2.792515 0.16843,-0.202942 0.31848,-0.512986 0.33345,-0.688986 0.015,-0.176 0.13521,-0.326507 0.26721,-0.33446 0.31676,-0.01909 3.07461,-1.45563 3.28,-1.708527 0.088,-0.108357 0.376,-0.238798 0.64,-0.289869 0.77029,-0.149014 6.20605,-2.338272 6.58944,-2.653905 0.1922,-0.158228 0.4442,-0.192936 0.56,-0.07713 0.11581,0.115806 0.21056,0.0732 0.21056,-0.09468 0,-0.16788 0.31104,-0.328667 0.69121,-0.357303 0.38016,-0.02864 0.79226,-0.21558 0.91578,-0.415429 0.12351,-0.199849 0.28047,-0.321844 0.34879,-0.271101 0.2141,0.159017 6.83397,-2.351414 7.04,-2.669756 0.10768,-0.166377 0.25168,-0.263996 0.32,-0.216931 0.0683,0.04707 0.48422,-0.02579 0.92422,-0.16191 0.44,-0.136117 1.016,-0.292244 1.28,-0.346951 0.99463,-0.206109 6.88309,-2.459039 7.27305,-2.782676 0.22382,-0.185756 0.40695,-0.2622 0.40695,-0.169874 0,0.09233 0.67089,-0.03404 1.49086,-0.280818 1.91824,-0.577305 1.84808,-0.585925 2.85938,0.351318 0.47477,0.44 0.75256,0.8 0.61731,0.8 -0.13526,0 -0.0667,0.216 0.15245,0.48 0.2191,0.264 0.27993,0.48 0.13518,0.48 -0.14475,0 -0.10163,0.161547 0.0958,0.358994 0.19744,0.197446 0.28283,0.557446 0.18976,0.8 -0.0931,0.242553 0.006,0.441006 0.21924,0.441006 0.21366,0 0.31099,0.201922 0.21628,0.448715 -0.0947,0.246793 -0.0819,0.538961 0.0284,0.649262 0.1103,0.110301 0.23312,0.42252 0.27294,0.693821 0.22992,1.566537 3.0114,7.400312 3.75867,7.883302 0.20074,0.129744 0.22034,0.239492 0.0437,0.2449 -0.21333,0.0065 -0.21333,0.08817 0,0.2449 0.176,0.129305 0.608,0.809524 0.96,1.511598 0.62143,1.239445 7.60679,8.483502 8.18055,8.483502 0.15716,0 0.12171,0.36 -0.0788,0.8 -0.43398,0.95247 -0.92571,0.983859 -4.74178,0.302682 -3.03369,-0.541524 -4.25765,-0.696474 -7.52,-0.952013 -2.55868,-0.200423 -13.43542,-0.190778 -14.4,0.01277 -0.352,0.07428 -1.792,0.203155 -3.2,0.286393 -2.52399,0.149213 -7.9246,0.846522 -11.36,1.466765 -0.968,0.174768 -2.192,0.385277 -2.72,0.467795 -0.528,0.08252 -1.536,0.292746 -2.24,0.467168 -0.704,0.17442 -1.316,0.324173 -1.36,0.332784 -0.044,0.0086 -0.116,0.02637 -0.16,0.03944 -0.044,0.01309 -0.44,0.09639 -0.88,0.185143 -1.02832,0.207414 -1.30196,0.282854 -2.08,0.573443 -0.352,0.131469 -0.82,0.292697 -1.04,0.358291 -0.22,0.06559 -0.40316,0.447776 -0.40703,0.849302 -0.0125,1.299645 -1.19624,3.412784 -2.28144,4.07274 -1.94631,1.183622 -2.71508,1.162384 -5.25692,-0.145226 -2.07921,-1.069613 -2.62717,-1.20792 -5.19953,-1.312374 -2.82328,-0.114644 -2.90374,-0.09725 -4.44012,0.959587 -3.50981,2.414329 -4.9194,3.011606 -7.11111,3.013168 -1.91511,0.0013 -2.12797,-0.07251 -3.10338,-1.076906 -0.59867,-0.616467 -1.14062,-1.576137 -1.26525,-2.240493 l -0.21802,-1.162124 -2.5986,0.09967 c -1.42923,0.05482 -2.76908,0.222429 -2.97745,0.372467 -0.27749,0.199805 -0.11539,0.759318 0.60584,2.091165 0.54158,1.000105 1.40723,2.667824 1.92366,3.706041 0.51644,1.038221 1.14381,2.092506 1.39416,2.342858 0.25035,0.250352 0.45519,0.638867 0.45519,0.863366 0,0.2245 0.288,0.740247 0.64,1.146106 0.352,0.405859 0.64,0.867795 0.64,1.026522 0,0.322268 2.45099,4.01671 3.10241,4.676336 0.22967,0.232569 0.41759,0.549152 0.41759,0.703513 0,0.154359 0.3573,0.666189 0.794,1.137399 0.43671,0.471212 0.72381,0.970332 0.63801,1.109158 -0.0858,0.138826 -0.002,0.303728 0.18613,0.366451 0.81402,0.271341 0.95891,4.714493 0.19372,5.940621 -0.1373,0.22 -0.1703,0.4 -0.0733,0.4 0.26606,0 -0.84596,2.660099 -1.30815,3.129261 -0.62368,0.633088 -0.20801,1.327641 2.25326,3.765043 1.252,1.239869 3.57237,3.684714 5.15637,5.432995 1.584,1.748279 3.82964,4.18984 4.99032,5.425693 1.16068,1.235856 2.88868,3.10977 3.84,4.164259 0.95132,1.054487 2.0835,2.236695 2.51595,2.62713 0.58422,0.527462 0.76745,0.98944 0.71301,1.797763 -0.0676,1.003504 0.37732,1.78382 0.99724,1.74905 0.49884,-0.028 4.06348,1.50129 4.06348,1.74327 0,0.13505 0.14617,0.24554 0.32482,0.24554 0.94012,0 4.28488,4.21131 4.69661,5.91339 0.63556,2.62738 0.73069,4.04422 0.41945,6.24661 -0.18655,1.32 -0.38578,5.208 -0.44274,8.64 -0.0858,5.16684 -0.22063,6.65925 -0.7842,8.67776 -0.37434,1.34077 -0.80875,3.58298 -0.96535,4.98269 -0.1566,1.3997 -0.44759,2.84924 -0.64666,3.2212 -0.19906,0.37195 -0.36193,1.04574 -0.36193,1.49731 0,0.45157 -0.28381,1.10485 -0.6307,1.45174 -0.34688,0.34688 -1.06895,1.49888 -1.60461,2.56 -0.53564,1.06111 -1.11583,1.9293 -1.2893,1.9293 -0.17346,0 -0.31539,0.16858 -0.31539,0.37462 0,0.51017 -3.49849,3.78538 -4.04345,3.78538 -0.2401,0 -0.43655,0.144 -0.43655,0.32 0,0.176 -0.108,0.30295 -0.24,0.28211 -0.132,-0.0208 -0.312,-0.01 -0.4,0.0245 -2.42365,0.94489 -5.69704,0.56303 -7.35697,-0.85824 -0.36507,-0.3126 -0.76711,-0.55991 -0.8934,-0.54958 -0.71758,0.0587 -3.17435,-3.46239 -3.47913,-4.98626 -0.10478,-0.52388 -0.28586,-0.95251 -0.4024,-0.95251 -0.11655,0 -0.23344,-0.252 -0.25977,-0.56 -0.0734,-0.85885 -1.28807,-5.77126 -1.51971,-6.14605 -0.1127,-0.18235 -0.26537,-0.6455 -0.33927,-1.02923 -0.12493,-0.64872 -0.78755,-1.33318 -1.04317,-1.07756 -0.0911,0.091 -0.28695,2.59693 -0.41377,5.29284 -0.0413,0.87687 -0.75625,2.06764 -1.87342,3.12 -0.60723,0.572 -1.21992,1.058 -1.36152,1.08 -0.62041,0.0964 -0.78883,0.14891 -1.69747,0.52937 l -0.96,0.40197 0.0659,10.95433 c 0.0808,13.42768 0.20216,16.80333 0.64129,17.83433 0.18741,0.44 0.52162,1.58471 0.7427,2.54381 0.22108,0.95909 0.79512,2.4106 1.27564,3.22557 0.48053,0.81498 1.05354,2.04626 1.27336,2.73619 0.21982,0.68994 0.54018,1.52719 0.71191,1.86055 0.34625,0.67216 0.90603,5.97106 0.67189,6.36014 -0.0815,0.13544 0.0207,0.75809 0.22719,1.38367 0.37661,1.14115 0.69366,9.0026 0.38445,9.53277 -0.14279,0.24482 -0.24339,1.12505 -0.39743,3.4773 -0.0202,0.308 -0.15824,0.56 -0.30683,0.56 -0.14859,0 -0.1954,0.28585 -0.10404,0.63522 0.0914,0.34937 0.0594,0.88937 -0.0711,1.2 -0.24341,0.57952 -0.28521,0.80979 -0.59633,3.28478 -0.0996,0.792 -0.2622,1.944 -0.36142,2.56 -0.67766,4.20712 -0.12116,9.74889 1.06843,10.63979 0.61655,0.46173 0.70005,1.72168 0.10575,1.59564 -0.3077,-0.0653 -0.31635,0.0694 -0.0378,0.58981 0.1985,0.3709 0.28156,0.99052 0.18458,1.37692 -0.097,0.3864 0.0289,1.09809 0.27969,1.58152 0.32585,0.62807 0.40162,1.46152 0.26546,2.91968 l -0.19056,2.04071 -2.47164,0.81688 c -1.82114,0.60189 -3.42485,0.86221 -6.09338,0.9891 -3.1392,0.14927 -3.8806,0.29675 -5.5647,1.10689 -2.45548,1.18122 -6.63575,2.39435 -9.94296,2.88548 -2.64013,0.39207 -8.74813,0.62498 -10.71452,0.40857 z m 32.08343,-39.09758 c 0.1369,-0.12277 0.39704,-1.14304 0.57809,-2.26725 0.3699,-2.2969 0.12776,-5.5305 -0.5708,-7.62251 -0.77776,-2.32921 -1.03409,-4.52365 -0.52841,-4.52365 0.23772,0 0.43221,-0.17722 0.43221,-0.39381 0,-0.70806 -2.03088,-5.65782 -2.71114,-6.60775 -0.40239,-0.56191 -1.43793,-3.85925 -1.44415,-4.59844 -0.003,-0.308 -0.11356,-0.56 -0.24659,-0.56 -0.56449,0 -1.63923,-4.49138 -1.60804,-6.72 0.004,-0.264 -0.10038,-2.928 -0.23129,-5.92 -0.13091,-2.992 -0.25619,-7.12481 -0.2784,-9.18402 -0.0222,-2.05921 -0.18712,-3.89074 -0.36646,-4.07007 -0.35537,-0.35534 -7.28849,0.35527 -9.59393,0.98334 -5.51438,1.50227 -9.3393,3.08945 -10.99185,4.56118 -4.12761,3.67595 -4.17811,8.13551 -0.18134,16.01542 1.16445,2.29578 2.38208,4.60615 2.70585,5.13415 0.32377,0.528 0.67302,1.87046 0.77612,2.98324 0.13353,1.4412 0.54093,2.73001 1.41617,4.48 1.1766,2.35256 2.39031,5.61674 3.23369,8.69676 0.62487,2.28201 0.99972,2.92653 1.4734,2.53341 0.30633,-0.25424 0.52585,-0.111 0.88027,0.57437 0.38413,0.74282 0.91841,1.04711 2.86538,1.63189 1.65104,0.4959 2.82569,1.09436 3.78776,1.92977 2.08885,1.81384 4.38411,2.98048 6.35455,3.2299 1.8328,0.23201 3.82055,0.0982 4.24891,-0.28593 z M 113.80301,175.6 c -1.72722,-1.67532 -2.65388,-3.0158 -2.31739,-3.35228 0.18846,-0.18847 2.73807,1.97408 3.17028,2.689 0.14075,0.2328 0.43965,0.42328 0.66422,0.42328 0.41808,0 1.79988,1.3056 1.79988,1.70062 0,0.12066 -0.35661,0.21938 -0.79247,0.21938 -0.52273,0 -1.38205,-0.57185 -2.52452,-1.68 z m -36.169941,20.72132 c 0.519677,-0.15487 1.584179,-2.3424 2.35624,-4.84204 0.511283,-1.65535 0.625901,-2.60629 0.467216,-3.87636 -0.115648,-0.9256 -0.326234,-1.68292 -0.467971,-1.68292 -0.416749,0 -0.716228,-1.87571 -0.791927,-4.96 -0.07691,-3.13358 0.212266,-4.12428 1.688279,-5.78403 1.126172,-1.26635 5.398425,-4.93597 5.746572,-4.93597 0.146458,0 0.4984,-0.252 0.782093,-0.56 0.28369,-0.308 1.269027,-1.136 2.189639,-1.84 2.66359,-2.03687 4.47679,-3.91422 4.47679,-4.63516 0,-1.07181 -0.851507,-2.80426 -1.566342,-3.18683 -1.154596,-0.61792 -2.606106,0.1114 -6.580868,3.30661 -1.614662,1.29799 -1.823849,0.76436 -0.311996,-0.79589 1.277392,-1.31829 4.623712,-3.97023 5.290048,-4.19234 0.258339,-0.0861 0.173488,-0.9094 -0.291552,-2.82893 -1.338023,-5.52289 -1.447431,-6.34167 -1.55904,-11.66746 -0.0627,-2.992 -0.133792,-5.584 -0.157984,-5.76 -0.02419,-0.176 0.05988,-1.00507 0.186838,-1.84238 0.327597,-2.16063 -0.376582,-2.3561 -2.164944,-0.60096 -0.74161,0.72784 -1.546934,1.32334 -1.789606,1.32334 -0.242672,0 -0.354109,0.0871 -0.247639,0.19358 0.183319,0.18332 -0.525469,0.93914 -2.32704,2.48144 -0.440067,0.37674 -1.136893,1.11698 -1.548499,1.64498 -0.41161,0.528 -1.491555,1.75802 -2.399878,2.73338 -0.908324,0.97535 -2.220269,2.48735 -2.915434,3.36 -0.695165,0.87264 -1.613632,1.94662 -2.041037,2.38662 -0.427405,0.44 -1.154633,1.304 -1.616064,1.92 -0.46143,0.616 -1.018963,1.31028 -1.238963,1.54286 -0.22,0.23257 -0.4,0.5544 -0.4,0.71519 0,0.50583 -1.975536,3.59484 -3.36521,5.26195 -2.490035,2.98715 -4.833008,7.07684 -5.91095,10.31764 -0.917418,2.75819 -1.018502,3.40228 -0.866691,5.52236 0.09452,1.32 0.407325,3.048 0.695117,3.84 0.801065,2.20452 1.473814,5.72476 1.467708,7.68 -0.0079,2.52189 0.32665,6.24531 0.600983,6.68919 0.128797,0.20839 1.296918,0.73845 2.59583,1.1779 1.298912,0.43945 2.582506,0.99035 2.852435,1.2242 0.960855,0.83246 2.443076,1.07737 5.610778,0.92707 1.76,-0.0835 3.35888,-0.19917 3.553069,-0.25704 z M 99.520458,161.92 c 1.098822,-2.33564 1.531172,-3.05878 2.518222,-4.21192 1.34941,-1.57649 6.49352,-6.10872 7.49604,-6.60441 1.15809,-0.57261 3.5363,-1.57249 4.27638,-1.79793 1.27607,-0.38872 1.4301,-0.95605 1.58715,-5.84626 0.1639,-5.10335 0.71025,-9.10085 1.26885,-9.28384 0.21828,-0.0715 0.49424,1.10703 0.74353,3.17533 0.60727,5.03838 0.96373,6.85616 1.66555,8.49343 0.35422,0.82636 0.69434,1.55278 0.75581,1.61426 0.0615,0.0615 0.95243,-0.13695 1.97989,-0.44095 5.66481,-1.67607 7.12076,-2.16702 8.98389,-3.02937 1.12689,-0.52159 2.17991,-0.94834 2.34005,-0.94834 0.16014,0 0.5821,-0.57026 0.93768,-1.26725 0.56888,-1.11511 0.6465,-1.88159 0.6465,-6.38439 0,-6.19164 -0.38327,-7.99847 -2.6194,-12.34836 -1.32506,-2.57761 -2.52548,-4.04886 -4.46557,-5.47301 -3.21584,-2.36065 -4.91136,-2.92388 -7.24374,-2.4063 -4.07103,0.90342 -10.65576,1.98196 -10.95837,1.79493 -0.18753,-0.1159 -0.51465,-0.0743 -0.72694,0.0924 -0.21229,0.16673 -0.88998,0.3883 -1.50598,0.49239 -0.616,0.10408 -1.48,0.27675 -1.92,0.38371 -0.44,0.10696 -1.34656,0.27762 -2.01458,0.37925 -1.58138,0.24058 -1.96756,1.01221 -2.45063,4.8966 -0.20794,1.672 -0.45207,3.39983 -0.54251,3.83961 -0.15858,0.77114 -0.18049,0.77767 -0.615051,0.18336 -0.600032,-0.82059 -0.73153,-0.62397 -1.142295,1.70798 -0.191977,1.08988 -0.417081,1.91357 -0.500227,1.83042 -0.08315,-0.0831 -0.151177,-2.39447 -0.151177,-5.13627 0,-4.56314 -0.04813,-4.9851 -0.568612,-4.9851 -0.868806,0 -2.278883,1.2592 -2.795996,2.49682 -0.254938,0.61016 -0.524144,2.47981 -0.59824,4.15479 -0.09773,2.20925 -0.298458,3.32294 -0.731082,4.05619 -0.739283,1.25299 -1.020118,4.34237 -1.033776,11.3722 -0.01251,6.44474 0.486816,9.47565 2.336237,14.18063 1.499209,3.81404 2.943571,5.77822 4.120566,5.60355 0.386106,-0.0573 0.803632,-0.32018 0.927831,-0.58418 z M 136.0751,119.5516 c 0.12931,-0.19338 0.23731,-0.762 0.24,-1.2636 0.006,-1.12976 -1.82512,-3.01352 -4.41876,-4.54562 -0.55899,-0.3302 -1.01634,-0.71332 -1.01634,-0.85138 0,-0.13805 -0.15002,-0.251 -0.33338,-0.251 -0.18336,0 -0.63581,-0.28175 -1.00544,-0.62612 -0.5917,-0.55125 -3.17817,-1.93388 -3.61769,-1.93388 -0.0899,0 -0.16349,0.3359 -0.16349,0.74644 0,0.72614 2.10383,2.77356 2.84998,2.77356 0.18013,0 0.48164,0.288 0.67002,0.64 0.18838,0.352 0.48145,0.64 0.65126,0.64 0.16981,0 0.5867,0.252 0.92642,0.56 0.33973,0.308 1.19883,1.05835 1.90912,1.66744 0.71028,0.60909 1.44785,1.48509 1.63904,1.94667 0.35606,0.8596 1.24916,1.12577 1.66926,0.49749 z m -39.313558,-0.36677 c 0.104512,-0.27235 0.623917,-0.64644 1.154237,-0.83131 0.530323,-0.18487 0.964221,-0.47454 0.964221,-0.64371 0,-0.16917 0.128701,-0.22804 0.286006,-0.13082 0.157303,0.0972 0.769303,-0.017 1.360004,-0.25387 2.08618,-0.83648 2.36027,-0.93072 2.99399,-1.02947 0.352,-0.0549 1.36,-0.25313 2.24,-0.44062 1.59446,-0.33972 2.22859,-0.44135 4.96,-0.79492 0.792,-0.10253 1.872,-0.28146 2.4,-0.39762 1.18669,-0.26109 1.58637,-0.33455 3.2,-0.58814 3.60532,-0.56661 5.693,-1.67956 5.86125,-3.12469 0.11687,-1.00369 0.0257,-1.0345 -1.19403,-0.40374 -0.49555,0.25626 -1.29288,0.53699 -1.77185,0.62384 -0.47897,0.0869 -1.04425,0.30183 -1.25619,0.47773 -0.21194,0.17589 -0.88346,0.40433 -1.49226,0.50764 -0.60881,0.10331 -1.34248,0.25915 -1.63037,0.34632 -0.2879,0.0872 -1.0079,0.22388 -1.6,0.30382 -0.59211,0.0799 -1.43655,0.22206 -1.87655,0.31583 -0.44,0.0938 -1.28625,0.25166 -1.88055,0.35088 -0.5943,0.0992 -1.3503,0.2406 -1.68,0.3142 -1.688,0.37682 -2.11584,0.46418 -2.99945,0.61249 -0.528,0.0886 -1.392,0.24008 -1.92,0.33659 -0.528,0.0965 -1.248,0.22506 -1.6,0.28567 -0.352,0.0606 -1.254,0.33603 -2.004454,0.61202 -0.750448,0.27599 -1.431837,0.51374 -1.514192,0.52833 -0.429146,0.076 -2.277527,0.93867 -2.50802,1.1705 -0.146668,0.14752 -0.42094,0.26822 -0.609494,0.26822 -0.377574,0 -0.631798,1.04995 -0.406781,1.68 0.209738,0.58727 2.292739,0.50874 2.524483,-0.0952 z M 40.536214,116.72 c 0.139693,-0.22 0.256192,-0.544 0.258887,-0.72 0.0026,-0.176 0.148899,-0.3222 0.324899,-0.3249 0.826915,-0.0127 1.175232,-0.60082 1.061584,-1.79255 -0.131702,-1.38103 -0.357402,-1.29115 3.258416,-1.29758 2.325555,-0.004 4.339821,-0.55451 5.137693,-1.4038 0.635849,-0.67683 0.747341,-1.17083 0.826425,-3.66177 0.05731,-1.80507 -0.03046,-2.8794 -0.235235,-2.8794 -0.179661,0 -0.244326,-0.13321 -0.143702,-0.29602 0.420409,-0.68024 -0.622858,-1.94371 -2.235392,-2.70721 -1.594445,-0.75494 -1.949002,-0.7936 -6.756272,-0.73676 l -5.073517,0.06 -2.663162,1.26133 c -1.464736,0.69373 -3.012737,1.67678 -3.439998,2.18455 -0.757938,0.90076 -1.081619,2.79412 -0.477672,2.79412 0.669994,0 1.908154,-0.64028 2.753914,-1.4241 0.493888,-0.45772 1.043987,-0.78354 1.222448,-0.72406 0.760211,0.25341 0.469638,0.87514 -0.82544,1.76618 -2.523895,1.73648 -3.106231,4.54198 -0.942778,4.54198 0.658333,0 1.214301,-0.51063 1.386387,-1.27333 0.137683,-0.61022 1.516771,-1.74287 1.789735,-1.46991 0.11535,0.11536 -0.267188,1.07724 -0.850084,2.13753 -1.004268,1.82677 -1.099321,2.4366 -0.641116,4.11321 0.242668,0.88795 1.172944,1.64964 2.168649,1.77565 1.001779,0.12678 1.330531,-0.3265 0.710141,-0.97915 -0.351866,-0.37016 -0.608944,-3.34344 -0.271024,-3.13457 0.132,0.0816 0.258,-0.004 0.28,-0.19054 0.02198,-0.18639 0.058,-0.50516 0.08,-0.70838 0.04723,-0.43629 1.16,-0.66862 1.16,-0.2422 0,0.16043 -0.139482,0.29169 -0.309958,0.29169 -0.170474,0 -0.226365,0.21783 -0.124199,0.48407 0.102167,0.26625 0.05937,0.66225 -0.09509,0.88 -0.348576,0.4914 -0.310883,1.1131 0.132553,2.18627 0.670516,1.62274 1.965005,2.38405 2.532912,1.48966 z M 103.2,113.68215 c 2.64,-0.53907 5.88,-1.15399 7.2,-1.3665 5.14554,-0.8284 7.43247,-1.70057 9.91308,-3.78061 1.43165,-1.20046 1.38228,-1.25892 -3.78455,-4.48169 -5.46819,-3.41074 -5.34357,-3.35264 -6.20853,-2.89455 -0.71727,0.37988 -4.41564,2.85684 -4.72,3.1612 -0.3078,0.3078 -1.44857,0.97681 -2.45812,1.44158 -0.55996,0.2578 -1.09581,0.59444 -1.19078,0.7481 -0.16832,0.27235 -3.942146,1.9703 -6.9899,3.14495 l -1.5188,0.58537 -0.0013,2.01031 c -9.6e-4,1.78244 0.08042,2.04459 0.7188,2.31265 1.092662,0.45883 3.744928,0.2004 9.04,-0.88081 z m -31.36,-1.35877 c 1.232,-0.18444 2.672,-0.466 3.2,-0.62568 0.528,-0.15969 1.752,-0.2992 2.72,-0.31003 2.33911,-0.0262 9.580374,-1.66283 12.48,-2.82072 0.264,-0.10542 0.552,-0.207 0.64,-0.22574 0.71217,-0.15161 8.677443,-4.16951 11.04,-5.56888 5.47097,-3.240512 8.25173,-5.30921 12.48,-9.284279 3.0173,-2.836614 5.10583,-5.794518 6.68196,-9.463401 1.19274,-2.776423 1.86432,-6.26465 1.20611,-6.26465 -0.3101,0 -1.96807,2.273152 -1.96807,2.69831 0,0.08307 -0.648,1.078 -1.44,2.210967 -0.792,1.132966 -1.44,2.19391 -1.44,2.357654 0,0.34768 -4.02181,4.156595 -4.86594,4.608359 -0.86925,0.465206 -0.71522,-0.150903 0.42734,-1.70937 2.02823,-2.766528 6.41628,-9.742512 7.30039,-11.60592 1.02062,-2.151133 1.61821,-4.624835 1.61821,-6.698515 0,-1.203971 -0.16317,-1.534429 -1.23644,-2.504064 -1.42527,-1.287642 -4.06149,-2.265773 -6.02656,-2.236064 -2.0666,0.03123 -5.21906,1.218432 -6.88,2.590957 -0.81704,0.675158 -2.3251,2.203088 -3.35126,3.395398 -2.77356,3.22265 -5.22574,5.741232 -5.22574,5.367248 0,-0.751331 2.01013,-4.06912 3.51038,-5.793987 1.44008,-1.655703 2.0346,-2.923091 1.36962,-2.919776 -0.132,6.4e-4 -0.71148,0.288656 -1.28773,0.64 -0.57626,0.351341 -1.20002,0.638803 -1.38615,0.638803 -0.41542,0 -3.162648,2.180454 -3.762869,2.98656 -0.240211,0.322608 -0.839049,0.998109 -1.330752,1.501114 -0.491699,0.503001 -1.159161,1.388412 -1.483251,1.967577 C 94.505162,75.834416 94.06,76.501203 93.84,76.736995 c -0.22,0.235795 -0.4,0.576205 -0.4,0.756464 0,0.180259 -0.267408,0.709975 -0.59424,1.177143 C 92.518925,79.13777 91.635053,80.672 90.881597,82.08 c -3.358883,6.276819 -5.024138,8.831715 -6.302263,9.669174 -0.4496,0.294592 -1.483878,0.773143 -2.298393,1.063453 C 81.466422,93.102934 79.576,93.77871 78.08,94.314349 c -3.062518,1.096528 -9.341757,2.890659 -11.52,3.291545 -0.792,0.14576 -2.52,0.58002 -3.84,0.965021 -4.540582,1.324339 -4.820378,1.545135 -3.471578,2.739485 1.12282,0.99426 2.511578,3.38928 2.511578,4.33142 0,1.81317 0.465786,2.37794 2.290182,2.77686 0.9404,0.20562 2.537818,0.46737 3.549818,0.58165 1.012,0.11428 1.84,0.33196 1.84,0.48373 0,0.15177 -0.036,0.2771 -0.08,0.27852 -4.349136,0.1402 -8.496544,0.47921 -8.8,0.7193 -0.22,0.17407 -0.4,0.71885 -0.4,1.21064 0,0.49178 0.18,0.9732 0.4,1.06981 0.596461,0.26195 8.706243,-0.0536 11.28,-0.43895 z m 65.71156,0.31662 c -0.0452,-0.088 0.15362,-0.592 0.44192,-1.12 0.2883,-0.528 0.96194,-1.8569 1.49698,-2.9531 0.53504,-1.09621 1.37257,-2.59375 1.86117,-3.32787 0.4886,-0.73412 1.03237,-1.55915 1.20837,-1.83339 0.56079,-0.8738 1.03807,-1.30091 1.23437,-1.1046 0.10481,0.10481 0.28104,-0.0452 0.39163,-0.3334 0.11058,-0.28818 0.33099,-0.44367 0.48979,-0.34552 0.1588,0.0982 0.3748,-0.0459 0.48,-0.32 0.1052,-0.27415 0.30857,-0.42595 0.45194,-0.33734 0.14337,0.0886 0.48828,-0.0665 0.76647,-0.3447 0.27819,-0.27819 0.5058,-0.41635 0.5058,-0.30704 0,0.10932 0.25061,0.0585 0.55691,-0.1129 0.44296,-0.247894 0.5646,-0.78518 0.59449,-2.625814 0.0401,-2.471478 -0.0135,-2.587948 -2.2714,-4.932208 -0.528,-0.548198 -1.68,-1.84847 -2.56,-2.889491 -2.15421,-2.54839 -8.07219,-8.472627 -8.46368,-8.472627 -0.37803,0 -1.02419,1.125469 -0.78403,1.365626 0.0934,0.09337 0.0216,0.724307 -0.15949,1.402073 C 133.61171,84.725466 133.39008,86 133.3003,86.88 c -0.17225,1.688314 -0.32588,2.803043 -0.6395,4.64 -0.10516,0.616 -0.2423,1.48 -0.30474,1.92 -0.0624,0.44 -0.14202,0.8 -0.17684,0.8 -0.0348,0 -0.11907,0.432 -0.1872,0.96 -0.53096,4.114387 -2.11434,8.57075 -3.22506,9.07683 -0.67874,0.30925 -0.78186,0.55001 -0.71572,1.67103 0.0698,1.18275 0.19514,1.36078 1.29302,1.83642 0.66866,0.28968 1.21574,0.62446 1.21574,0.74395 0,0.28647 2.917,2.44548 4.77168,3.53176 1.28005,0.74972 2.46647,1.05971 2.21988,0.58001 z m -79.455256,-2.07132 c 0.618515,-0.18338 1.532355,-3.48914 1.302797,-4.71279 -0.272183,-1.45086 -1.825539,-3.60765 -3.056899,-4.24441 C 55.347738,101.09722 51.52,100.916 51.52,101.38317 c 0,0.14475 0.420765,1.04475 0.935034,2 1.157587,2.15023 1.416368,3.53092 1.034748,5.52077 -0.272134,1.41898 -0.240809,1.56626 0.38706,1.81974 0.591104,0.23864 3.217091,0.14218 4.219462,-0.155 z m 67.524306,-6.8158 c 0.36334,-0.30408 0.8763,-0.91288 1.1399,-1.35288 0.86016,-1.43575 2.46494,-6.472237 3.00788,-9.44 0.12879,-0.704 0.30693,-1.64 0.39587,-2.08 0.0889,-0.44 0.22366,-3.392 0.29938,-6.56 0.15464,-6.469581 -0.17913,-8.54927 -1.70723,-10.637558 -1.90355,-2.601367 -2.5621,-2.6392 -2.82759,-0.162442 -0.71607,6.680058 -2.6093,12.227837 -5.81206,17.031162 -0.50422,0.756198 -1.15768,1.736198 -1.45215,2.177779 -0.29447,0.441577 -0.65529,0.890214 -0.80182,0.996966 -0.36883,0.268688 -1.84417,2.285088 -2.29438,3.135805 -0.50949,0.962736 6.4e-4,1.984784 1.48917,2.982976 0.65033,0.436132 2.31089,1.621492 3.69013,2.634142 2.67284,1.96241 3.72251,2.23685 4.8729,1.27405 z M 62.205501,96.630906 c 1.250973,-0.357002 2.524544,-0.789002 2.830157,-0.96 C 65.34127,95.499907 65.804237,95.36 66.064474,95.36 c 0.26024,0 1.090192,-0.196358 1.844342,-0.436355 0.75415,-0.239994 2.617459,-0.820378 4.140688,-1.289744 4.159011,-1.281552 4.202669,-2.338365 0.177594,-4.299002 C 61.997197,84.351862 58.226822,82.56 57.971584,82.56 c -0.16127,0 -0.463645,-0.20535 -0.671946,-0.456336 -0.30591,-0.368598 -0.545142,-0.383981 -1.244313,-0.08 -2.243776,0.975536 -3.255309,2.57177 -3.308483,5.220906 -0.02589,1.289478 0.119139,1.598435 1.328851,2.83104 0.746845,0.760982 1.296342,1.568281 1.221104,1.793996 -0.09601,0.28802 -0.351399,0.195792 -0.856471,-0.30928 -1.001961,-1.001961 -1.83182,-0.783273 -1.690992,0.44561 0.124733,1.088406 1.22008,2.71799 2.845991,4.234064 0.952083,0.88777 1.351033,1.04 2.72551,1.04 0.885591,0 2.63369,-0.292093 3.884666,-0.649094 z m 20.548393,-7.824445 c 0.888221,-0.371123 1.091306,-0.605959 0.939005,-1.085821 -0.106883,-0.336755 0.192026,-2.004982 0.664243,-3.707174 0.80257,-2.893021 0.823661,-3.129805 0.323316,-3.630151 -0.500346,-0.500345 -0.58618,-0.472905 -1.315914,0.420714 -1.812896,2.220032 -4.002477,7.382659 -3.485747,8.218745 0.250579,0.405447 1.636592,0.301168 2.875097,-0.216313 z M 50.053827,87.165763 C 50.332224,87.058934 50.56,86.747584 50.56,86.473878 c 0,-0.609366 1.365782,-3.00718 2.64705,-4.647257 0.931606,-1.192496 0.937638,-1.224883 0.350438,-1.881469 -0.328618,-0.36745 -1.21881,-0.936307 -1.978202,-1.264128 -1.23039,-0.531146 -1.474265,-0.546016 -2.24,-0.136589 -2.290716,1.224816 -4.3511,4.349293 -4.160665,6.309463 0.08423,0.867024 0.263737,1.078256 1.061379,1.248979 0.747082,0.159901 2.102586,0.672729 3.253827,1.231021 0.0296,0.01437 0.281607,-0.0613 0.56,-0.168135 z M 77.816755,86.48 c 0.773578,-0.910189 1.608864,-2.96744 1.412551,-3.479018 -0.100087,-0.260822 -0.05989,-0.398768 0.08933,-0.306547 0.325017,0.200874 1.378502,-2.343097 1.134077,-2.738585 -0.09377,-0.151716 -0.03572,-0.27585 0.128995,-0.27585 0.314557,0 1.752473,-3.071264 1.760371,-3.76 0.0026,-0.22 0.139994,-0.4 0.305491,-0.4 0.165495,0 0.215146,-0.223478 0.11033,-0.496621 -0.104813,-0.273139 -0.06331,-0.417968 0.09223,-0.321837 0.341188,0.210864 0.746068,-0.71936 0.49202,-1.130419 C 83.24319,73.411005 83.29161,73.28 83.44975,73.28 c 0.418743,0 1.075687,-1.587597 0.824874,-1.993421 -0.125011,-0.202269 -0.06426,-0.253225 0.14655,-0.122934 0.221156,0.136678 0.442432,-0.122016 0.573568,-0.670557 0.117428,-0.4912 0.350048,-1.066781 0.516932,-1.279072 0.166883,-0.212288 0.219852,-0.5212 0.117712,-0.686467 -0.102141,-0.165267 0.04144,-0.387651 0.319062,-0.494186 0.277626,-0.106534 0.44416,-0.373625 0.370077,-0.593533 -0.07408,-0.219907 0.06439,-0.546614 0.307715,-0.726012 0.243328,-0.179402 0.466611,-0.647402 0.496186,-1.04 0.02957,-0.392602 0.163427,-0.713818 0.297452,-0.713818 0.31641,0 1.220122,-1.748592 1.220122,-2.360806 0,-0.470135 -0.732554,-0.483146 -2.88,-0.05115 -0.44,0.08851 -1.304,0.248646 -1.92,0.355849 -1.611888,0.280525 -1.468643,0.242266 -4.96,1.324778 -2.870262,0.889936 -4.98288,1.438432 -5.428864,1.409485 -0.08773,-0.0057 -0.666134,0.201321 -1.285328,0.460038 -0.619194,0.258718 -1.125808,0.37883 -1.125808,0.26692 0,-0.111914 -0.18,-0.06664 -0.4,0.100601 -0.321341,0.244282 -3.098029,1.390346 -3.76,1.551917 -0.088,0.02147 -1.024,0.441792 -2.08,0.934029 -1.056,0.492237 -2.1,0.899481 -2.32,0.904992 -0.22,0.0055 -0.4,0.101085 -0.4,0.212397 0,0.111308 -0.54,0.386112 -1.2,0.610675 -3.920915,1.334064 -7.153245,2.716509 -7.405514,3.167286 -0.17591,0.314336 -0.170368,0.835591 0.01405,1.320621 0.386541,1.016678 2.727773,3.194147 3.69553,3.43704 0.404771,0.10159 0.735946,0.280483 0.735946,0.397539 0,0.171603 9.188537,4.779699 11.68,5.857578 4.876947,2.10991 7.380921,2.603654 8.216755,1.620211 z M 42.625027,83.204368 c 0.53777,-0.0043 2.038688,-2.692934 1.878151,-3.364368 -0.04208,-0.176 0.02957,-0.213933 0.159193,-0.0843 0.129635,0.129639 0.579555,-0.230361 0.999821,-0.8 0.420266,-0.569635 0.794198,-1.003769 0.830963,-0.964739 0.03676,0.03903 0.387296,-0.01283 0.77896,-0.115261 0.804989,-0.210508 1.204327,-1.61543 0.987383,-3.473721 C 48.187456,73.784893 48.243597,73.28 48.384256,73.28 48.524915,73.28 48.64,73.055501 48.64,72.781114 c 0,-0.274388 -0.11065,-0.4305 -0.245888,-0.346916 -0.135242,0.08358 -0.191856,-0.41463 -0.125814,-1.107136 C 48.397482,69.972419 47.932592,69.12 47.064614,69.12 46.380618,69.12 44.805782,68.395974 44.802496,68.08 44.801216,67.948 44.584,67.84 44.32,67.84 c -0.264,0 -0.48,-0.120886 -0.48,-0.268634 0,-0.668736 -1.71423,-0.981196 -4.549856,-0.829328 -3.876448,0.207616 -3.686598,0.168493 -3.645699,0.751296 0.08894,1.267412 1.053165,1.730039 4.515555,2.166525 1.738278,0.219136 2.897981,1.137383 2.527738,2.001453 -0.364496,0.850659 -0.728698,3.301424 -0.748663,5.037856 -0.0105,0.912544 -0.160326,2.030685 -0.332963,2.484758 -0.282106,0.741988 -0.436118,0.806045 -1.520928,0.63258 -1.916493,-0.306461 -3.674538,1.500809 -2.551942,2.623401 0.388422,0.388426 3.250659,1.055354 3.906758,0.910314 0.352,-0.07782 0.885261,-0.14345 1.185027,-0.145853 z M 27.398614,77.494611 C 27.363588,76.873312 27.160571,76.306858 26.947465,76.235821 26.734359,76.164787 26.56,76.252963 26.56,76.43177 c 0,0.178806 -0.274697,0.412288 -0.610438,0.518848 -0.761259,0.241612 -1.143664,1.156371 -0.618971,1.480649 0.215747,0.133338 0.783641,0.231306 1.261987,0.217706 0.789994,-0.02246 0.863882,-0.128279 0.806036,-1.154362 z m 3.759311,0.809981 c 0.192119,0.192118 0.290997,-0.373597 0.122075,-0.698429 -0.044,-0.08461 0.234329,-0.374003 0.618509,-0.643094 0.468496,-0.328147 0.689552,-0.804359 0.671302,-1.44616 C 32.546003,74.679546 32.426131,74.56 31.610265,74.56 c -1.549744,0 -2.110758,0.504682 -2.352422,2.116211 -0.241603,1.611123 0.183301,2.236954 1.16284,1.71272 0.294343,-0.157526 0.626101,-0.195481 0.737242,-0.08434 z M 90.72823,76.56 c 0.511194,-0.800678 5.231741,-5.554838 6.275325,-6.32001 C 97.2436,70.063987 98.304,69.355267 99.36,68.665056 c 1.056,-0.690208 2.28,-1.495894 2.72,-1.790413 2.69861,-1.806336 7.64224,-3.516592 11.55207,-3.996461 1.53031,-0.18782 2.2224,-0.0722 4.73805,0.791559 3.42869,1.177248 5.58434,2.382384 9.51079,5.317088 3.28383,2.454397 4.0462,2.808089 5.47496,2.540051 1.24769,-0.23407 2.00486,-1.4708 2.00261,-3.270989 -10e-4,-0.990797 -0.36012,-1.689817 -1.93857,-3.775891 -1.93392,-2.555866 -3.17991,-4.872013 -3.17991,-5.911082 0,-0.302348 -0.28671,-0.8092 -0.63714,-1.126332 -0.35043,-0.317133 -1.02274,-1.239453 -1.49401,-2.049597 -0.47127,-0.810144 -1.71508,-2.604823 -2.76402,-3.988173 l -1.90716,-2.515184 -4.35883,0.153709 c -4.34093,0.153075 -6.77004,0.617389 -11.23884,2.148253 -3.69483,1.265728 -6.25963,2.726889 -8.83801,5.035008 -2.33512,2.090358 -6.241875,7.34863 -7.148124,9.620982 -0.229786,0.57617 -0.584484,1.15217 -0.788218,1.28 -0.535741,0.336138 -1.511616,3.034448 -1.20745,3.338614 0.141533,0.141533 0.537338,-0.01677 0.879568,-0.351776 0.818071,-0.800812 3.882266,-4.0819 5.122628,-5.485222 1.64758,-1.864048 5.361236,-4.474234 5.775846,-4.059622 0.0774,0.07737 -0.43913,0.664489 -1.14778,1.304713 -0.708655,0.640224 -1.28813,1.272419 -1.287724,1.404877 3.2e-4,0.132458 -1.047037,1.248832 -2.327648,2.480832 -4.628819,4.453117 -9.052742,11.68 -7.149891,11.68 0.243757,0 0.696022,-0.396 1.005033,-0.88 z M 36.427091,74.603091 c 0.146951,-1.038611 -0.269469,-1.352659 -1.394761,-1.051885 -0.66305,0.177226 -0.963236,0.463764 -0.988237,0.943306 -0.01974,0.378816 0.08825,0.612022 0.24,0.518237 0.15175,-0.09379 0.275907,-0.0084 0.275907,0.189622 0,0.204093 0.381299,0.316266 0.88,0.258883 0.644643,-0.07417 0.908643,-0.303689 0.987091,-0.858163 z m -5.262699,-1.459014 c 0.684416,-0.110647 1.358498,-0.271699 1.49796,-0.357891 0.139462,-0.08619 1.019485,-0.165444 1.955606,-0.176116 2.346151,-0.02675 2.789098,-0.186924 2.592791,-0.937603 -0.08993,-0.343897 -0.279623,-0.553507 -0.421536,-0.465801 -0.141914,0.08771 -0.620698,-0.30394 -1.063962,-0.870327 -0.684272,-0.874339 -0.987257,-1.017584 -2.007085,-0.948902 -0.66063,0.04449 -1.713475,0.3052 -2.339656,0.579357 -1.897732,0.830864 -2.389734,1.024998 -3.089948,1.219244 -0.867291,0.240596 -1.451829,1.463159 -0.963486,2.015133 0.345735,0.390787 1.14221,0.378941 3.839316,-0.05709 z M 40,72.990397 c 0,-0.621696 -1.198688,-0.816243 -1.825251,-0.296243 -0.671674,0.55744 -0.485421,0.768873 0.705251,0.800601 0.844646,0.0225 1.12,-0.101488 1.12,-0.504358 z M 79.68,59.623581 c 0.792,-0.275843 1.872,-0.683978 2.4,-0.906963 0.528,-0.222986 1.32,-0.511924 1.76,-0.642084 0.44,-0.13016 1.376,-0.531961 2.08,-0.892892 0.704,-0.360935 1.560682,-0.680506 1.903741,-0.71016 0.343056,-0.02966 0.679353,-0.220765 0.747331,-0.424695 0.06797,-0.203926 0.235706,-0.301481 0.372739,-0.216793 0.137031,0.08469 0.837773,-0.130413 1.55721,-0.478007 C 91.220454,55.004394 91.960042,54.72 92.144541,54.72 92.329043,54.72 92.48,54.6 92.48,54.453334 c 0,-0.146668 0.18,-0.269897 0.4,-0.273846 0.22,-0.0039 0.976,-0.251645 1.68,-0.550432 0.704,-0.298787 1.352,-0.548682 1.44,-0.555318 0.088,-0.0066 0.56152,-0.249252 1.052266,-0.539143 0.585728,-0.346 0.860566,-0.747113 0.8,-1.167565 -0.131028,-0.909558 -0.930644,-0.951321 -2.708404,-0.141456 -0.849123,0.38682 -1.581372,0.680394 -1.627216,0.652384 -0.04584,-0.028 -0.512336,0.170909 -1.036646,0.442042 -0.52431,0.271133 -1.062803,0.509539 -1.196646,0.529795 -0.940336,0.142301 -14.85376,6.126327 -15.313706,6.586269 -1.164986,1.164989 0.64169,1.256298 3.710352,0.187517 z M 103.92,48.32615 c 0.748,-0.392169 1.36,-0.850483 1.36,-1.018476 0,-0.167994 0.1354,-0.22176 0.30089,-0.119482 0.38468,0.237741 4.22975,-3.327373 3.99621,-3.705245 C 109.48092,43.327328 109.52138,43.2 109.667,43.2 c 0.14562,0 0.52178,-0.396 0.83591,-0.88 0.5668,-0.873293 0.56967,-0.873901 0.3765,-0.08 -0.40852,1.679021 -1.18506,3.52 -1.48476,3.52 -0.17183,0 -0.22957,0.134051 -0.12832,0.297888 0.10126,0.16384 0.044,0.384451 -0.12713,0.49025 -0.17119,0.105795 -0.22482,0.417603 -0.11917,0.692899 0.14401,0.375289 0.4408,0.447126 1.18602,0.287075 0.54667,-0.117405 1.32806,-0.25657 1.73641,-0.309251 0.40836,-0.05268 0.90516,-0.258477 1.104,-0.457322 C 113.24531,46.562691 113.6672,46.4 113.984,46.4 c 0.3168,0 0.576,-0.152499 0.576,-0.338886 0,-0.186388 0.12891,-0.259213 0.28647,-0.161837 0.4609,0.284851 0.59149,-0.444563 0.61556,-3.438074 0.0191,-2.382019 -0.0734,-2.912541 -0.59969,-3.438867 C 114.52005,38.680051 113.97403,38.4 113.64896,38.4 c -0.66754,0 -2.05908,-1.08321 -1.7669,-1.375395 0.10473,-0.104733 0.75718,0.03635 1.44989,0.313517 1.217,0.486947 1.2859,0.479097 2.04375,-0.232874 0.43137,-0.405245 0.7843,-0.99464 0.7843,-1.30977 0,-0.315129 0.288,-0.727094 0.64,-0.915478 0.42387,-0.226845 0.64,-0.670022 0.64,-1.312298 0,-1.518169 -0.52546,-2.226595 -1.59131,-2.145381 -0.50844,0.03874 -0.89839,0.156604 -0.86656,0.261916 0.0858,0.283734 -1.48765,2.524598 -1.87937,2.676627 -0.22022,0.08547 -0.33127,-0.770941 -0.32,-2.467816 0.0154,-2.325321 -0.0482,-2.611594 -0.60452,-2.721233 -0.34196,-0.06739 -0.89242,-0.466619 -1.22322,-0.887172 -0.68156,-0.866463 -1.87616,-0.997785 -2.5893,-0.284643 -0.62784,0.627829 -1.06519,0.605533 -1.96216,-0.100033 -0.76003,-0.597835 -1.99519,-0.57914 -6.32356,0.09571 -1.283232,0.200074 -1.52,0.156561 -1.52,-0.279345 0,-0.283984 0.108,-0.48649 0.24,-0.450015 0.675027,0.186529 2.94888,-0.43739 2.8788,-0.789909 -0.13133,-0.66068 -0.5812,-0.813906 -2.123901,-0.723405 C 97.766762,25.857904 91.84,27.493532 91.84,27.882112 91.84,28.03495 91.624,28.16 91.36,28.16 c -0.264,0 -0.48,0.144 -0.48,0.32 0,0.176 -0.36,0.32 -0.8,0.32 -0.44,0 -0.8,0.127213 -0.8,0.282695 0,0.425365 1.704083,0.666802 2.143242,0.303659 0.768406,-0.635397 2.196451,-0.631785 2.77456,0.007 0.52432,0.579368 0.525574,0.8143 0.02262,4.2438 -0.292826,1.996761 -0.656176,3.956006 -0.807447,4.353875 -0.437017,1.14944 -0.06792,1.614307 1.246051,1.569357 0.64953,-0.02221 1.32496,-0.129491 1.50096,-0.238375 0.176,-0.108883 0.896,-0.301769 1.6,-0.428636 1.805524,-0.325367 2.240894,-0.74522 1.556701,-1.501236 -0.80296,-0.88726 -0.383603,-0.989017 0.656855,-0.159388 0.695098,0.554252 0.856738,0.887702 0.687998,1.41934 -0.1213,0.382189 -0.31978,0.674954 -0.44105,0.650589 -0.12127,-0.02435 -0.436504,0.03123 -0.700504,0.123546 -3.584544,1.253456 -6.613424,1.746998 -7.189008,1.171414 -0.141248,-0.141245 -0.195888,-1.185801 -0.140067,-2.677657 0.01318,-0.352 -0.01901,-1.252 -0.07149,-2 -0.07485,-1.066765 -0.220979,-1.36 -0.677712,-1.36 -0.320256,0 -1.081654,-0.208653 -1.692003,-0.463671 -1.309322,-0.547072 -1.405632,-0.250665 -0.430976,1.326365 0.5304,0.858205 0.645578,1.443459 0.526976,2.67777 -0.08348,0.868745 -0.02042,1.579536 0.140138,1.579536 0.16055,0 0.212998,0.127683 0.11655,0.28374 -0.09645,0.156058 0.06245,0.480058 0.35312,0.72 0.290662,0.239943 0.787853,1.021213 1.104861,1.736154 0.759037,1.711827 1.644093,2.497984 2.504717,2.224832 0.462832,-0.146896 0.64366,-0.08375 0.582931,0.203562 -0.04842,0.229084 0.246969,0.467395 0.656425,0.529577 0.557156,0.08461 0.686669,0.247552 0.514746,0.647597 -0.566381,1.317898 -0.544816,2.400573 0.05682,2.852694 0.969495,0.72856 6.299056,0.362826 8.043966,-0.552006 z m -9.787722,-4.9792 C 93.796019,42.608941 93.83176,42.56 94.707005,42.56 c 0.513305,0 1.904918,-0.225338 3.092473,-0.500752 4.125492,-0.956765 4.855702,-1.04344 4.785932,-0.568093 -0.10354,0.705463 -0.70883,1.139223 -1.76062,1.261683 -0.54179,0.06308 -1.381004,0.197341 -1.864928,0.298349 -0.483923,0.101011 -1.455862,0.26737 -2.159862,0.369687 -0.704,0.102316 -1.511562,0.304604 -1.794579,0.449529 -0.379133,0.194138 -0.608963,0.05635 -0.873143,-0.523453 z M 99.52,32.227869 c -1.136573,-0.572121 -1.242035,-1.948319 -0.201549,-2.630072 0.592026,-0.387909 1.385559,-0.498252 3.084409,-0.428895 1.25802,0.05136 2.34165,0.181313 2.40807,0.288784 0.0664,0.107471 -0.24313,0.730924 -0.68789,1.385451 -1.17083,1.723017 -2.89849,2.242751 -4.60304,1.384732 z m 3.20998,-2.093726 c -0.87414,-0.131267 -1.04287,0.02356 -0.77797,0.713871 0.19221,0.500915 0.25282,0.498462 0.84498,-0.0342 0.63528,-0.571444 0.635,-0.574252 -0.067,-0.679672 z m 35.67212,18.502465 c 0.11117,-0.179875 0.33617,-0.244202 0.50001,-0.142941 0.16384,0.101258 0.29789,0.03162 0.29789,-0.154781 0,-0.186387 0.108,-0.316025 0.24,-0.288083 0.51042,0.108045 1.3459,-0.454733 1.14872,-0.773776 -0.11567,-0.187155 -0.0554,-0.241859 0.13604,-0.123529 0.189,0.116812 0.56611,-0.01008 0.83801,-0.281984 0.27191,-0.271904 0.57151,-0.489229 0.6658,-0.482941 0.0943,0.0063 0.27943,0.0103 0.41143,0.0089 0.30098,-0.0032 1.08672,-1.657453 0.88366,-1.860506 -0.0823,-0.08229 -1.15456,-0.189808 -2.38282,-0.238918 -2.40111,-0.09601 -2.25994,-0.192736 -2.7172,1.86192 -0.13447,0.604256 -0.39799,0.88 -0.841,0.88 -0.53791,0 -0.59028,-0.102531 -0.31505,-0.616819 0.62879,-1.174896 -0.23234,-2.078215 -1.65314,-1.734138 -0.40394,0.09782 -0.97588,0.193667 -1.27096,0.212982 -0.29507,0.01933 -0.48242,0.122624 -0.41632,0.229575 0.0661,0.10695 0.15639,0.808147 0.20065,1.558211 0.0519,0.87889 0.28413,1.5064 0.65329,1.764973 0.70758,0.495609 3.3452,0.628054 3.62099,0.181824 z M 131.36,42.81999 c 0.704,-0.20704 1.40948,-0.343075 1.56774,-0.302297 0.15826,0.04077 0.51826,-0.02678 0.8,-0.150112 0.67704,-0.296381 0.94571,-0.364061 2.27226,-0.572394 6.8254,-1.071923 8.81263,-1.158038 11.29548,-0.489478 2.55582,0.688211 4.49564,1.056048 5.50452,1.043789 1.14396,-0.01389 2.55262,-0.407367 2.66496,-0.744378 0.0603,-0.181008 0.2414,-0.247712 0.40237,-0.148227 0.16097,0.09948 0.29267,0.04016 0.29267,-0.131837 0,-0.17199 0.0772,-0.513862 0.17153,-0.759715 0.25761,-0.671312 -1.26629,-2.127024 -2.80837,-2.682727 -1.55233,-0.559395 -1.36632,-0.515276 -5.2002,-1.233299 -1.58237,-0.296352 -3.07016,-0.699101 -3.3062,-0.894995 -0.23604,-0.195898 -1.2665,-0.364758 -2.28991,-0.375248 -1.02341,-0.0105 -1.79512,-0.127072 -1.71491,-0.259072 0.0802,-0.132 -0.21089,-0.24 -0.64688,-0.24 -0.43599,0 -1.04412,-0.09647 -1.35138,-0.214381 -0.39406,-0.151213 -0.48682,-0.09812 -0.31481,0.180199 0.37655,0.609267 -2.22442,2.810409 -4.18984,3.545766 -0.94361,0.353053 -2.2984,0.735098 -3.01064,0.848989 -1.69556,0.271129 -3.34415,1.126937 -3.32192,1.724451 0.01,0.261238 0.1336,0.870976 0.27529,1.354976 0.29146,0.995597 0.87936,1.096672 2.90824,0.49999 z m -8.4049,-1.02926 c 0.12931,-0.192903 0.23731,-0.252071 0.24,-0.131488 0.003,0.120582 1.22358,-0.35185 2.71308,-1.049856 1.4895,-0.698004 4.4775,-1.895799 6.64,-2.661767 2.66904,-0.945382 3.96594,-1.56351 4.03807,-1.924605 0.10973,-0.549353 -0.72591,-0.570041 -1.92126,-0.04757 -0.29426,0.128618 -0.72626,0.273008 -0.96,0.320868 -0.23375,0.04786 -0.64099,0.174528 -0.90499,0.281484 -0.264,0.106957 -1.704,0.575351 -3.2,1.04088 -1.496,0.46553 -3.98715,1.421562 -5.53589,2.124516 -1.54874,0.702953 -3.02057,1.30814 -3.27074,1.344857 -0.80662,0.118387 -0.92207,0.507107 -0.29001,0.976439 0.65593,0.487052 2.04578,0.331865 2.45174,-0.27376 z m 82.21804,-8.396093 C 204.87991,32.99065 204.532,32.655587 204.4,32.650054 204.268,32.644525 204.16,32.424 204.16,32.16 c 0,-0.264 -0.108,-0.481124 -0.24,-0.482497 -0.132,-0.0014 -0.39588,-0.325373 -0.58639,-0.72 C 203.1431,30.562876 202.59847,29.556 202.12333,28.72 c -0.47514,-0.836 -0.76495,-1.52 -0.64402,-1.52 0.12094,0 -0.0544,-0.303118 -0.38971,-0.673596 -0.33528,-0.370478 -0.57767,-0.694478 -0.53864,-0.72 0.16919,-0.110638 -0.3279,-1.486404 -0.53706,-1.486404 -0.1273,0 -0.42401,-0.612 -0.65935,-1.36 -0.23534,-0.748 -0.50818,-1.504 -0.60632,-1.68 -0.0981,-0.176 -0.19864,-0.428 -0.22333,-0.56 -0.0247,-0.132 -0.0809,-0.312 -0.1249,-0.4 -0.044,-0.088 -0.116,-0.304 -0.16,-0.48 -0.044,-0.176 -0.10902,-0.356 -0.14448,-0.4 -0.14052,-0.174333 -0.38148,-1.391218 -0.37894,-1.913699 0.002,-0.304535 -0.13449,-0.638485 -0.30216,-0.742112 -0.16767,-0.103626 -0.21453,-0.334571 -0.10412,-0.513211 0.11966,-0.193609 -0.10048,-0.281617 -0.545,-0.217889 -0.65082,0.0933 -0.73833,0.26983 -0.68751,1.386911 0.10657,2.34267 0.16052,2.72 0.38888,2.72 0.12466,0 0.24223,0.18 0.26124,0.4 0.0277,0.320583 0.24402,1.356179 0.36761,1.76 0.0135,0.044 0.0129,0.159592 -0.001,0.256871 -0.0142,0.09728 0.20515,0.529279 0.48737,0.96 0.28222,0.430721 0.42752,0.783129 0.32289,0.783129 -0.10462,0 0.0374,0.227609 0.31557,0.505798 0.27819,0.27819 0.42397,0.63819 0.32397,0.8 -0.1,0.161811 -0.005,0.294202 0.21039,0.294202 0.21572,0 0.30048,0.09175 0.18834,0.203879 -0.11213,0.112133 0.11565,0.652133 0.50617,1.2 0.39053,0.547867 0.71027,1.099453 0.71055,1.225747 2.7e-4,0.126294 0.21649,0.496983 0.48049,0.823754 0.264,0.326771 0.696,0.961963 0.96,1.411537 1.28668,2.191128 2.33271,3.510286 2.97374,3.750187 0.95971,0.359174 1.26553,-0.222707 0.5994,-1.140467 z M 89.742186,31.502247 c 0.79174,-0.518769 1.914688,-0.516359 3.137814,0.0067 0.696931,0.298054 0.738045,-0.245219 0.06918,-0.914087 -0.371309,-0.371311 -0.688055,-0.415835 -1.300832,-0.182857 -0.445504,0.16938 -1.289229,0.307964 -1.874941,0.307964 -1.146992,0 -1.467539,0.417405 -1.43312,1.866173 0.01933,0.813785 0.03353,0.820934 0.302787,0.152483 0.155376,-0.385741 0.649978,-0.942124 1.099114,-1.236409 z m 2.677603,1.054079 C 92.502842,32.125062 92.305235,32 91.540752,32 c -0.909283,0 -0.954774,0.05047 -0.583462,0.647334 0.472057,0.758804 1.30887,0.70673 1.462499,-0.09101 z"
       id="path1909" />
  </g>
</svg>
